<?xml version="1.0" encoding="utf-8"?>
<svg viewBox="0 0 160 100" xmlns="http://www.w3.org/2000/svg">
  <g transform="matrix(0.10000000149011612, 0, 0, -0.10000000149011612, -163.9534912109375, 344.18603515625)" fill="#000000" stroke="none">
    <path d="M2612 3400 c-21 -20 -22 -29 -22 -169 0 -174 4 -181 96 -189 53 -4 57 -6 95 -58 22 -30 43 -54 47 -54 4 0 24 24 44 54 l37 54 62 4 c94 7 99 16 99 192 0 197 14 186 -241 186 -183 0 -197 -1 -217 -20z m426 -12 c17 -17 17 -289 0 -306 -7 -7 -38 -12 -69 -12 l-57 0 -42 -57 c-42 -55 -43 -56 -59 -36 -76 99 -68 93 -124 93 -29 0 -58 5 -65 12 -17 17 -17 289 0 306 17 17 399 17 416 0z"/>
    <path d="M2760 3285 c-35 -36 -59 -65 -52 -65 8 0 12 -17 12 -50 l0 -50 110 0 110 0 0 50 c0 32 4 50 12 50 6 0 2 10 -10 23 -13 14 -22 36 -22 55 0 22 -5 32 -15 32 -8 0 -15 -8 -15 -17 0 -13 -6 -11 -28 10 -15 15 -30 27 -33 27 -2 0 -34 -29 -69 -65z m115 -5 l39 -40 -84 0 -84 0 39 40 c21 22 42 40 45 40 3 0 24 -18 45 -40z m43 -102 c-3 -39 -6 -43 -30 -46 -26 -3 -28 -1 -28 32 0 33 -2 36 -29 36 -26 0 -30 -4 -33 -32 -2 -28 -7 -33 -28 -33 -22 0 -25 5 -28 43 l-3 42 91 0 91 0 -3 -42z"/>
    <path d="M1767 2726 c-37 -101 -67 -187 -67 -190 0 -3 11 -6 25 -6 20 0 26 7 36 40 l12 40 87 0 87 0 13 -40 c10 -32 18 -40 37 -40 12 0 23 4 23 9 0 5 -29 89 -65 187 -36 98 -65 179 -65 181 0 2 -13 3 -28 3 -28 0 -30 -4 -95 -184z m156 -68 c-2 -5 -31 -8 -64 -8 -45 0 -59 3 -59 15 0 12 15 55 52 155 9 23 13 17 42 -65 18 -49 31 -93 29 -97z"/>
    <path d="M2090 2765 c0 -161 7 -187 60 -219 33 -19 115 -21 150 -3 13 7 35 28 47 46 21 31 23 45 23 177 l0 144 -25 0 -25 0 0 -144 c0 -169 -7 -185 -81 -193 -35 -4 -50 -1 -69 15 -24 19 -25 25 -30 169 -5 144 -6 148 -27 151 -23 3 -23 3 -23 -143z"/>
    <path d="M2443 2903 c2 -5 28 -47 57 -95 l52 -88 -42 -72 c-24 -40 -50 -83 -58 -95 -14 -22 -13 -23 14 -23 25 0 34 9 68 70 22 39 42 70 45 70 4 0 24 -30 47 -67 32 -54 46 -69 67 -71 15 -2 27 -1 27 2 0 4 -25 46 -55 96 l-56 89 56 90 c30 49 55 92 55 95 0 3 -11 6 -24 6 -19 0 -32 -15 -65 -70 -23 -38 -44 -70 -47 -70 -2 0 -24 32 -49 70 -36 57 -50 70 -71 70 -14 0 -23 -3 -21 -7z"/>
    <path d="M2790 2720 l0 -190 25 0 25 0 0 190 0 190 -25 0 -25 0 0 -190z"/>
    <path d="M2930 2720 l0 -190 100 0 c93 0 100 1 100 20 0 18 -7 20 -75 20 l-75 0 0 65 0 65 65 0 c58 0 65 2 65 20 0 18 -7 20 -65 20 l-65 0 0 65 0 65 75 0 c68 0 75 2 75 20 0 19 -7 20 -100 20 l-100 0 0 -190z"/>
  </g>
</svg>